<?xml version="1.0" encoding="UTF-8" standalone="no"?>
<!DOCTYPE svg PUBLIC "-//W3C//DTD SVG 1.1//EN" "http://www.w3.org/Graphics/SVG/1.1/DTD/svg11.dtd">
<svg width="100%" height="100%" viewBox="0 0 1162 1162" version="1.1" xmlns="http://www.w3.org/2000/svg" xmlns:xlink="http://www.w3.org/1999/xlink" xml:space="preserve" xmlns:serif="http://www.serif.com/" style="fill-rule:evenodd;clip-rule:evenodd;stroke-linejoin:round;stroke-miterlimit:2;">
    <g transform="matrix(1,0,0,1,-986.818,-795.463)">
        <g transform="matrix(1.07436,0,0,1.07436,-125.271,-176.236)">
            <circle cx="1575.57" cy="1444.9" r="540.456" style="fill:white;"/>
        </g>
        <g transform="matrix(0.962424,0,0,0.962424,51.0942,-14.4981)">
            <circle cx="1575.57" cy="1444.9" r="540.456" style="fill:rgb(255,159,0);"/>
        </g>
        <g transform="matrix(1,0,0,1,-4,-87.7262)">
            <g transform="matrix(1.42905,3.89154e-17,4.03135e-17,1.33886,-97.0551,-615.357)">
                <g>
                    <g>
                        <g transform="matrix(1,0,0,1,4.64993,0)">
                            <path d="M1094.11,1703.34L1094.19,1705.19L1093.85,1707.47C1093.79,1707.64 1093.49,1708.56 1092.47,1709.31C1091.45,1710.07 1089.7,1709.89 1089.45,1709.86C1089.15,1709.83 1087.93,1709.7 1085.89,1708.69C1085.21,1708.38 1080.1,1706.1 1078.22,1703.43L1074.34,1698.36C1072.33,1695.93 1068.57,1694.11 1068.01,1693.84C1063.92,1691.87 1054.38,1690.35 1053.17,1690.16C1052.23,1690.01 1046.14,1689.04 1041.35,1689.87C1040.53,1690.02 1036.53,1690.71 1031.6,1693.35C1031.17,1693.6 1029.11,1694.79 1026.52,1696.81L1021.7,1701.07C1021.36,1701.41 1019.45,1703.33 1017.79,1705.71C1016.1,1708.15 1015.65,1709.85 1015.54,1710.24C1014.8,1713.02 1015.93,1714.63 1016.15,1714.95C1017.53,1716.91 1022.75,1717.86 1023.37,1717.97C1024.53,1718.18 1032.76,1719.68 1038.15,1718.51C1038.85,1718.36 1043.35,1717.38 1046.64,1715.49L1052.15,1712C1054.41,1710.39 1057.65,1710.85 1058.13,1710.92C1060.37,1711.24 1060.95,1712.18 1061.09,1712.4C1061.82,1713.59 1061.81,1714.34 1061.81,1714.52C1061.8,1715.24 1061.75,1719.17 1058.94,1723.12C1055.99,1727.27 1054.97,1730.9 1054.77,1731.63L1053.76,1734.82L1051.81,1739.47C1050.61,1741.89 1049.22,1743.3 1048.94,1743.58C1047.24,1745.31 1044.91,1744.98 1044.55,1744.93C1044.29,1744.89 1042.75,1744.67 1041.55,1743.82L1039.76,1742.12C1037.43,1739.85 1037.25,1737.85 1037.21,1737.43C1037,1735.06 1036.38,1733.32 1036.26,1732.98C1036.13,1732.61 1035.54,1730.93 1033.17,1729.18C1030.87,1727.47 1025.62,1726.56 1024.94,1726.44C1023.59,1726.2 1013.62,1724.47 1007.87,1725.74C1006.92,1725.95 1001.85,1727.08 997.316,1731.84L989.753,1740.09C985.927,1744.51 984.942,1748.81 984.749,1749.65C983.83,1753.67 985.859,1755.64 986.233,1756C988.666,1758.37 991.604,1759.84 992.116,1760.09L998.364,1763.41C1001.15,1765 1000.93,1767.34 1000.89,1767.74C1000.7,1769.78 997.898,1770.66 997.553,1770.77C994.362,1771.78 991.236,1771.22 990.695,1771.13C989.831,1770.97 985.022,1770.12 980.075,1768.39C979.289,1768.11 975.146,1766.66 970.034,1765.62C963.562,1764.31 958.655,1763.73 957.659,1763.61C951.63,1762.89 946.737,1761.75 945.799,1761.53C941.472,1760.52 938.058,1759.33 937.397,1759.11L929.183,1756.62C925.925,1755.77 924.329,1753.96 924.013,1753.6C923.79,1753.35 922.127,1751.45 923.123,1749.48C924.096,1747.55 926.702,1747.39 927.059,1747.37L932.869,1747.19C934.549,1747.22 945.922,1747.42 953.639,1744.03C954.788,1743.53 960.947,1740.82 966.463,1735.01C974.475,1726.64 980.059,1719.75 981.177,1718.36C982.216,1717.08 987.289,1710.81 994.999,1703.03L1002.06,1695.45C1005.48,1691.75 1007.08,1688.06 1007.39,1687.35L1008.04,1685.34C1008.08,1685.18 1008.25,1684.35 1007.84,1683.27C1007.75,1683.02 1007.43,1682.2 1005.42,1681.01L1001.24,1678.66L997.488,1676.36C997.339,1676.26 995.907,1675.25 996.404,1674.37C997.317,1672.75 1000.14,1672.51 1000.5,1672.48C1001.05,1672.43 1003.65,1672.21 1007.44,1672.56C1011.22,1672.9 1014.31,1673.55 1014.9,1673.68L1020.37,1674.83C1021.61,1675.11 1028.12,1676.54 1035.74,1678.98C1036.99,1679.38 1043.35,1681.42 1051.77,1682.82L1062.27,1684.2L1073.1,1685.47C1074.18,1685.62 1082.18,1686.69 1086.19,1689.35C1090.18,1691.98 1092.35,1696.98 1092.69,1697.76L1093.6,1700.51L1094.11,1703.34ZM1047.14,1738.19C1047.14,1738.19 1046.01,1729.55 1057.39,1717.05C1053.96,1720.81 1050.6,1723.36 1049.07,1726.3C1045.52,1733.11 1047.11,1738.19 1047.11,1738.19L1047.14,1738.19ZM1031.34,1685.54C1017.5,1697.35 1007.16,1705.01 997.994,1715.96C981.459,1735.7 971.524,1755.66 971.524,1755.66C971.524,1755.66 992.533,1718.65 1031.34,1685.54Z"/>
                        </g>
                        <path d="M1211.66,1701.79L1214.2,1706.3C1215.88,1709.69 1216.87,1712.69 1217.06,1713.26C1218.28,1716.95 1218.16,1719.19 1218.13,1719.71C1218.11,1720.04 1217.98,1722.54 1215.28,1722.63C1212.83,1722.72 1210.63,1721.34 1210.27,1721.12C1209.86,1720.86 1207.71,1719.51 1205.42,1717.44L1201.38,1713.35C1199.6,1711.32 1198.6,1710.73 1198.31,1710.57C1197.79,1710.23 1195.51,1708.79 1191.26,1707.3L1182.58,1704.73C1181.86,1704.55 1178.1,1703.61 1173.56,1702.99C1168.96,1702.36 1166.05,1702.31 1165.39,1702.3C1159.15,1702.2 1154.75,1703.6 1153.86,1703.88C1152.52,1704.27 1144.28,1706.68 1137.66,1710.28C1130.76,1714.03 1127.2,1717.73 1126.43,1718.53C1121.86,1723.28 1119.82,1727.69 1119.4,1728.58C1118.99,1729.49 1116.78,1734.26 1115.97,1740.53C1115.81,1741.7 1114.96,1747.71 1118.06,1755.15C1118.56,1756.35 1120.84,1761.82 1128.67,1767.44C1136.98,1773.41 1150.96,1776.5 1153,1776.95L1160.58,1778.29L1167.99,1778.72C1170.06,1778.77 1186.29,1779.11 1193.59,1775.18C1200.38,1771.54 1193.88,1763.63 1193.25,1762.87C1192.78,1762.3 1189.98,1758.89 1185.83,1757.3C1181.67,1755.71 1178.47,1755.12 1177.81,1755L1170.8,1753.86C1170.43,1753.81 1167.66,1753.44 1166.58,1751.81C1165.51,1750.19 1168.4,1749.58 1168.64,1749.53C1171.76,1748.87 1174.09,1748.9 1174.57,1748.91L1179.46,1749.25C1190.26,1750.49 1198.19,1750.41 1199.83,1750.4C1207.03,1750.33 1212.67,1749.89 1213.78,1749.81L1227.21,1748.61L1230.71,1748.26L1234.66,1748.02L1238.81,1747.98L1244.04,1748.16L1248.98,1748.77C1251.3,1749.23 1252.19,1750.01 1252.42,1750.2C1253.71,1751.33 1251.36,1752.64 1251.16,1752.75L1244.92,1756.04C1244.34,1756.33 1241.19,1757.92 1238.18,1760.36C1235.1,1762.85 1236.14,1765.8 1236.31,1766.27C1236.32,1766.58 1236.41,1768.05 1237.64,1769.87C1238.9,1771.73 1239.02,1773.24 1239.05,1773.56C1239.15,1774.27 1239.71,1778 1234.26,1781.12C1233.19,1781.73 1228.61,1784.36 1219.88,1786.41C1218.33,1786.78 1210.9,1788.52 1200.23,1789.3C1189.57,1790.08 1181.53,1789.98 1179.91,1789.96C1160.52,1789.74 1145.64,1787.12 1142.7,1786.61C1125.37,1783.56 1114.05,1778.87 1111.67,1777.88C1098.57,1772.46 1091.74,1766.34 1090.25,1765.01C1082.37,1757.95 1080.87,1750.87 1080.56,1749.43L1080.37,1748.52C1080.4,1747.3 1080.57,1741.11 1083.94,1733.69C1084.47,1732.52 1087.04,1726.87 1093.08,1720.37C1094.04,1719.33 1098.63,1714.39 1106.57,1708.91C1107.83,1708.04 1114.11,1703.7 1123.39,1699.84C1124.94,1699.19 1132.52,1696.03 1143.49,1693.89C1145.38,1693.52 1154.35,1691.78 1167.49,1691.94L1175.58,1692.27C1176.26,1692.32 1179.79,1692.55 1183.99,1693.46L1188.67,1694.75C1189.03,1694.86 1191.75,1695.65 1193.17,1695.62C1194.8,1695.59 1195.58,1695.19 1195.77,1695.1C1195.98,1695 1196.74,1694.61 1198.58,1694.56C1200.88,1694.5 1202.48,1695.13 1202.8,1695.25C1203.11,1695.37 1204.73,1696 1206.51,1697.15L1209.63,1699.59L1211.66,1701.79ZM1137.88,1779.81C1138.17,1779.92 1138.43,1780 1138.66,1780.07L1138.67,1780.07C1138.45,1780 1138.18,1779.92 1137.88,1779.81ZM1137.88,1779.81C1128.84,1776.54 1090.27,1755.7 1102.94,1726.62C1116.02,1696.62 1171.34,1696.32 1171.34,1696.32C1171.34,1696.32 1114.38,1696.62 1101.3,1726.62C1097.95,1734.29 1097.42,1741.81 1099.88,1748.16C1106.76,1765.89 1131.08,1777.43 1137.88,1779.81ZM1191.02,1755.06L1191.02,1755.08C1191.02,1755.08 1199.47,1758.89 1216.83,1757.86C1223.16,1757.48 1230.69,1755.51 1239.42,1753.81C1206.76,1760.19 1191.02,1755.06 1191.02,1755.06Z"/>
                        <g transform="matrix(1,0,0,1,-2.32496,0)">
                            <path d="M1324.97,1686.54L1329.81,1690.12L1336.1,1695.53C1339.16,1698.43 1340.41,1700.25 1340.73,1700.71C1340.86,1700.9 1342.33,1703.06 1340.07,1703.51C1337.06,1704.11 1331.52,1702.57 1330.81,1702.37C1323.88,1700.43 1318.26,1698.72 1317.18,1698.38C1309.8,1696.13 1303.82,1694.71 1302.64,1694.43C1295.44,1692.73 1290.8,1693.39 1289.78,1693.54C1283.2,1694.47 1280.32,1697.22 1279.68,1697.82C1279.14,1698.34 1276.13,1701.22 1275.11,1706C1274.94,1706.82 1274.06,1710.95 1275.01,1716.52C1276.02,1722.44 1278.17,1727.05 1278.57,1727.91C1279,1728.84 1281.28,1733.72 1285.31,1738.77C1285.93,1739.53 1289.47,1743.96 1294.16,1747.31C1298.59,1750.48 1304.83,1753.38 1305.8,1753.83C1307.1,1754.43 1313.31,1757.31 1322.59,1760.01C1324.14,1760.46 1332.12,1762.78 1342.25,1764.12C1343.77,1764.32 1352.55,1765.49 1361.48,1764.09C1362.66,1763.91 1370.95,1762.61 1375.61,1759.38C1380.11,1756.26 1382.03,1753.57 1382.47,1752.96C1384.72,1749.82 1385.76,1747.67 1386,1747.18C1386.17,1746.82 1387.22,1744.65 1390,1744.07C1390.55,1743.95 1393.05,1743.42 1397.07,1743.79C1397.64,1743.84 1401.11,1744.16 1404.02,1745.5C1404.33,1745.64 1406.43,1746.61 1407.48,1748.04C1408.54,1749.49 1408.72,1750.78 1408.76,1751.04C1408.98,1752.6 1408.56,1753.81 1408.48,1754.04L1407.63,1756.53C1407.08,1757.68 1404.56,1762.95 1396.77,1768.3C1388.56,1773.94 1374.28,1776.17 1372.24,1776.49C1369.92,1776.85 1359.31,1778.5 1342.93,1777.71C1326.72,1776.92 1313.11,1774.31 1310.54,1773.82C1292.42,1770.39 1281.83,1765.93 1279.44,1764.93C1267.17,1759.76 1260.87,1754.43 1259.45,1753.24C1253.89,1748.55 1251.17,1744.44 1250.6,1743.57C1247.46,1738.82 1246.23,1734.78 1245.98,1733.97C1245.76,1733.26 1244.57,1729.36 1244.62,1724.86C1244.63,1724.18 1244.67,1720.58 1245.57,1716.48C1245.75,1715.73 1246.51,1712.63 1248.76,1707.42C1249.11,1706.62 1250.83,1702.63 1254.48,1698.01C1255.08,1697.26 1258.04,1693.51 1263.49,1690.13C1264.46,1689.52 1268.9,1686.77 1277.11,1685.69L1285.08,1684.94L1292.98,1684.12C1295.89,1683.67 1297.17,1682.64 1297.46,1682.4C1297.77,1682.15 1299.03,1681.14 1302.06,1680.62C1303.02,1680.45 1308.05,1679.59 1314.23,1681.62C1320.5,1683.68 1324.18,1686.03 1324.97,1686.54ZM1279.73,1690.17C1279.73,1690.17 1254.95,1697.68 1259.78,1724.72C1264.61,1751.76 1307.23,1764.46 1327.31,1767.74C1307.23,1764.46 1267.34,1750.26 1262.51,1723.22C1257.68,1696.17 1279.88,1690.17 1279.88,1690.17L1279.73,1690.17Z"/>
                        </g>
                    </g>
                </g>
            </g>
        </g>
        <g transform="matrix(1,0,0,1,-4,-87.7262)">
            <g transform="matrix(0.511662,-1.00811,1.00811,0.511662,-673.446,2691.69)">
                <path d="M1827.36,1499.45C1827.36,1499.45 1896.31,1467.17 1903.8,1460.2C1911.29,1453.22 1914.58,1451.42 1914.58,1451.42C1914.58,1451.42 1923.2,1448.12 1927.05,1452.56C1930.89,1457 1931.95,1459.14 1931.97,1461.01C1932.04,1465.58 1931.38,1474.37 1924.88,1479.87C1918.38,1485.36 1912.06,1492.53 1890.99,1496.33C1869.92,1500.14 1844.79,1502 1839.2,1502.26C1833.62,1502.51 1828.11,1502.49 1827.35,1502.14C1826.59,1501.8 1825.28,1500.86 1826.1,1500.26C1826.95,1499.63 1827.36,1499.45 1827.36,1499.45"/>
            </g>
        </g>
        <g transform="matrix(1,0,0,1,-4,-87.7262)">
            <g transform="matrix(1.13052,0,0,1.13052,-216.328,-177.423)">
                <path d="M1391.85,1466.4C1391.13,1465.64 1389.44,1465.53 1388.92,1466.69C1386.42,1472.32 1381.63,1482.63 1383.17,1502.43C1384.59,1520.57 1388.25,1524.32 1388.25,1524.32C1388.25,1524.32 1397.47,1544.11 1408.89,1550.38C1420.32,1556.65 1423.49,1557.14 1423.49,1557.14C1423.49,1557.14 1442.58,1558.08 1448.67,1557.14C1454.77,1556.19 1462.96,1550.72 1464.2,1548.47C1465.45,1546.22 1464.53,1544.59 1462.2,1543.89C1459.87,1543.18 1443.68,1538.1 1443.68,1538.1C1443.68,1538.1 1429.38,1533.52 1412.59,1511.97C1395.8,1490.42 1393.2,1474.92 1392.76,1471.64C1392.31,1468.21 1392.27,1466.86 1391.85,1466.4Z"/>
            </g>
        </g>
        <g transform="matrix(1,0,0,1,-4,-87.7262)">
            <g transform="matrix(1.13052,0,0,1.13052,-216.328,-177.423)">
                <path d="M1443.7,1348.7C1443.7,1348.7 1438.52,1348.35 1434.71,1354.38C1430.9,1360.41 1428.89,1372.26 1428.68,1376.17C1428.47,1380.08 1407.76,1462.93 1409.38,1476.34C1410.99,1489.74 1414.98,1496.93 1416.25,1500.23C1417.52,1503.53 1430.04,1528.32 1443.75,1532.89C1457.45,1537.46 1466.51,1537.12 1468.12,1536.61C1469.73,1536.11 1479.14,1532.44 1478.93,1529.52C1478.71,1526.59 1491.58,1506.37 1486.62,1495.79C1481.66,1485.21 1474.72,1475.38 1472.29,1469.88C1469.86,1464.38 1468.09,1456.95 1469.25,1452.82C1470.4,1448.69 1473.17,1440.96 1479.81,1432.09C1486.44,1423.22 1498.42,1405.22 1498.42,1405.22C1498.42,1405.22 1511.25,1383.32 1516.54,1362.5C1521.82,1341.67 1522.15,1335.07 1520.67,1333.58C1519.18,1332.09 1516.47,1334.79 1514.29,1336.66C1512.11,1338.53 1497.27,1362.93 1495.15,1367.03C1493.04,1371.13 1489.73,1380.12 1489.33,1384.88C1488.94,1389.64 1480.74,1398.26 1475.45,1397.97C1470.16,1397.68 1466.86,1399.13 1461.3,1390.67C1455.75,1382.21 1452.29,1373.69 1450.93,1365.49C1449.58,1357.28 1448.07,1350.1 1443.7,1348.7Z"/>
            </g>
        </g>
        <g transform="matrix(1,0,0,1,-4,-87.7262)">
            <g transform="matrix(1.13052,0,0,1.13052,-216.328,-177.423)">
                <path d="M1582.19,1618.51C1597.64,1617.9 1613.09,1615.96 1625.28,1611.85C1641.72,1606.29 1666.81,1558.93 1654.39,1524.07C1641.61,1488.15 1622.07,1511.57 1616.05,1451.77C1610.03,1391.97 1585.03,1426.67 1582.27,1339.91C1582.27,1339.91 1580.7,1363.75 1550.07,1406.64C1519.43,1449.53 1497.42,1452.78 1519.43,1492.41C1542.05,1533.12 1524.69,1552.77 1504.55,1570.14C1491.77,1581.15 1478.81,1582.65 1478.73,1587.78C1478.67,1591.49 1485.44,1598.13 1503.54,1606.78C1513.12,1611.35 1519.93,1614.17 1525.34,1615.9C1506.49,1614.31 1490.03,1612.16 1481.13,1609.91C1456.35,1603.63 1451.22,1595.53 1446.76,1591.23C1442.3,1586.94 1439.16,1581.15 1440.64,1576.86C1442.13,1572.56 1442.96,1568.1 1461.96,1563.63C1480.97,1559.17 1496.1,1536.9 1496.1,1536.9C1505.72,1525.93 1501.15,1514.55 1501.15,1514.55C1501.15,1514.55 1493.48,1494.46 1491.24,1488.51C1488.99,1482.56 1481.58,1461.67 1481.06,1456.64C1480.53,1451.62 1479.87,1447.92 1481.72,1440.91C1483.57,1433.9 1494.14,1420.02 1500.62,1413.01C1507.1,1406.01 1509.63,1399.48 1515.89,1390.93C1522.16,1382.39 1523.38,1374.34 1524.54,1367.4C1525.7,1360.46 1529.83,1351.37 1537.27,1333.15C1544.7,1314.92 1562.25,1280.86 1568.07,1266.37C1573.89,1251.88 1575.69,1203.33 1576.11,1188.94C1576.53,1174.55 1580.62,1128.34 1580.7,1126.06C1580.79,1123.77 1582.06,1103.38 1585.61,1099.49C1589.17,1095.6 1592.2,1099.83 1592.2,1099.83C1592.2,1099.83 1593.79,1104.06 1594.05,1133.14C1594.32,1162.23 1600.66,1169.5 1600.66,1169.5C1600.66,1169.5 1608.6,1182.06 1618.25,1198.59C1627.9,1215.12 1627.11,1232.96 1627.11,1232.96C1627.11,1232.96 1622.08,1301.71 1622.35,1315.33C1622.61,1328.95 1626.31,1336.22 1635.31,1351.29C1644.3,1366.37 1659.81,1373.21 1669.44,1378.5C1679.06,1383.79 1684.5,1380.2 1684.5,1380.2C1684.5,1380.2 1686.53,1379.19 1692.01,1374.65C1697.49,1370.12 1703.38,1368.49 1703.38,1368.49C1703.38,1368.49 1706.97,1369.51 1707.85,1372.35C1708.73,1375.19 1708.2,1382.78 1707.15,1385.63C1706.09,1388.49 1690.79,1409.94 1686.13,1418.83C1681.48,1427.71 1681.48,1438.54 1682.49,1443.2C1683.51,1447.85 1683.85,1451.41 1689.86,1453.1C1695.86,1454.79 1699.12,1447.7 1699.12,1447.7C1699.12,1447.7 1714.07,1424.88 1714.89,1428.35C1715.72,1431.82 1716.22,1443.06 1711.42,1463.22C1706.63,1483.38 1705.14,1481.57 1693.74,1500.41C1682.34,1519.25 1679.41,1524.4 1677.97,1546.5C1676.52,1568.61 1675.69,1569.43 1668.05,1588.44C1660.4,1607.44 1650.25,1611.1 1619.84,1616.39C1610.92,1617.94 1597.43,1618.56 1582.19,1618.51Z"/>
            </g>
        </g>
        <g transform="matrix(1,0,0,1,-4,-87.7262)">
            <g transform="matrix(1.13052,0,0,1.13052,-216.328,-177.423)">
                <path d="M1667.92,1618.51C1672.38,1621.29 1689.5,1621.97 1701.77,1618.51C1714.04,1615.06 1746.19,1597.29 1749.15,1577.41C1752.11,1557.52 1752.13,1536.25 1747.8,1531.11C1743.47,1525.96 1743.87,1526.91 1740.35,1529.89C1736.83,1532.87 1731.28,1548.47 1731.28,1548.47C1731.28,1548.47 1714.56,1578.36 1692.36,1595.96C1670.15,1613.56 1666.5,1617.21 1666.5,1617.21C1666.5,1617.21 1667.38,1618.17 1667.92,1618.51Z"/>
            </g>
        </g>
        <g transform="matrix(1,0,0,1,-4,-87.7262)">
            <g transform="matrix(-1.11044,-0.149411,-0.132984,0.988357,3477.55,281.984)">
                <path d="M1667.92,1618.51C1672.38,1621.29 1689.5,1621.97 1701.77,1618.51C1714.04,1615.06 1746.19,1597.29 1749.15,1577.41C1752.11,1557.52 1752.13,1536.25 1747.8,1531.11C1743.47,1525.96 1743.87,1526.91 1740.35,1529.89C1736.83,1532.87 1731.28,1548.47 1731.28,1548.47C1731.28,1548.47 1714.56,1578.36 1692.36,1595.96C1670.15,1613.56 1666.5,1617.21 1666.5,1617.21C1666.5,1617.21 1667.38,1618.17 1667.92,1618.51Z"/>
            </g>
        </g>
        <g transform="matrix(1,0,0,1,-4,-87.7262)">
            <g transform="matrix(1.13052,0,0,1.13052,-216.328,-177.423)">
                <path d="M1682.67,1577.19C1682.67,1577.19 1676.27,1580.88 1675.67,1585.09C1675.07,1589.3 1675.67,1590.81 1676.73,1592.24C1677.78,1593.66 1678.76,1593.89 1681.91,1591.93C1685.07,1589.98 1704.1,1572.15 1713.2,1557.34C1722.31,1542.52 1725.74,1535.67 1730.63,1519.31C1735.52,1502.95 1741.33,1468.14 1741.33,1468.14C1741.33,1468.14 1742.27,1463.35 1738.51,1467.86C1734.75,1472.37 1708.62,1500.77 1704.57,1504.9C1700.53,1509.04 1692.42,1520.52 1690.54,1528.41C1688.66,1536.3 1688.63,1541.51 1688.15,1548.47C1687.67,1555.43 1686.83,1565.06 1686.7,1566.86C1686.58,1568.67 1685.72,1575.76 1682.67,1577.19Z"/>
            </g>
        </g>
        <g transform="matrix(1,0,0,1,-4,-87.7262)">
            <g transform="matrix(0.987985,0.154552,-0.154552,0.987985,271.062,-202.841)">
                <path d="M1777.98,1572.3C1777.98,1572.3 1791.22,1565.81 1826.76,1571.52C1862.3,1577.23 1885.87,1588.81 1902.89,1601.34C1919.91,1613.87 1925.1,1622.59 1926.76,1631.52C1928.42,1640.44 1775.74,1579.91 1777.98,1572.3Z"/>
            </g>
        </g>
        <g transform="matrix(1,0,0,1,-4,-87.7262)">
            <g transform="matrix(0.792138,0.425377,-0.284675,0.530122,607.526,207.165)">
                <path d="M1404.78,1812.73C1409.01,1807.01 1411.47,1801.05 1429.85,1788.4C1448.24,1775.76 1459.26,1743.33 1477.1,1733.92C1494.93,1724.52 1511.68,1735.08 1514.5,1737.4C1517.33,1739.73 1522.64,1753.01 1523.47,1769.95C1524.3,1786.88 1523.14,1797.01 1519.49,1802.16C1515.83,1807.31 1517.83,1806.98 1510.69,1809.13C1503.55,1811.29 1497.51,1805.44 1494.41,1801.16C1491.84,1797.62 1484.92,1791.8 1477.1,1791.87C1469.28,1791.93 1457.23,1796.28 1449.92,1804.87C1442.61,1813.45 1435.4,1823.55 1423.93,1827.54C1412.45,1831.54 1404.97,1826.86 1404.46,1822.69C1403.95,1818.53 1402.8,1815.4 1404.78,1812.73Z"/>
            </g>
        </g>
        <g transform="matrix(1,0,0,1,-4,-87.7262)">
            <g transform="matrix(-0.904778,-0.0345325,0.0226152,-0.592537,3137.25,2900.65)">
                <path d="M1404.78,1812.73C1409.01,1807.01 1411.47,1801.05 1429.85,1788.4C1448.24,1775.76 1459.26,1743.33 1477.1,1733.92C1494.93,1724.52 1511.68,1735.08 1514.5,1737.4C1517.33,1739.73 1522.64,1753.01 1523.47,1769.95C1524.3,1786.88 1523.14,1797.01 1519.49,1802.16C1515.83,1807.31 1517.83,1806.98 1510.69,1809.13C1503.55,1811.29 1497.51,1805.44 1494.41,1801.16C1491.84,1797.62 1484.92,1791.8 1477.1,1791.87C1469.28,1791.93 1457.23,1796.28 1449.92,1804.87C1442.61,1813.45 1435.4,1823.55 1423.93,1827.54C1412.45,1831.54 1404.97,1826.86 1404.46,1822.69C1403.95,1818.53 1402.8,1815.4 1404.78,1812.73Z"/>
            </g>
        </g>
        <g transform="matrix(1,0,0,1,-4,-87.7262)">
            <g transform="matrix(0.440496,-0.897754,0.897754,0.440496,-534.274,2299.42)">
                <path d="M1393.41,1713.96C1393.41,1713.96 1352.16,1733.16 1344.89,1743.54C1337.63,1753.91 1339.96,1754.17 1341,1757.55C1342.04,1760.92 1345.67,1762.22 1354.75,1760.4C1363.83,1758.58 1390.46,1744.83 1401.66,1732.38C1412.87,1719.93 1408.26,1716.49 1405.96,1715.13C1403.67,1713.77 1400.07,1712.53 1393.41,1713.96Z"/>
            </g>
        </g>
        <g transform="matrix(1,0,0,1,-4,-87.7262)">
            <g transform="matrix(1.07585,-0.797385,0.753453,1.01658,-1335.85,1153.58)">
                <path d="M1393.41,1713.96C1393.41,1713.96 1352.16,1733.16 1344.89,1743.54C1337.63,1753.91 1339.96,1754.17 1341,1757.55C1342.04,1760.92 1345.67,1762.22 1354.75,1760.4C1363.83,1758.58 1390.46,1744.83 1401.66,1732.38C1412.87,1719.93 1408.26,1716.49 1405.96,1715.13C1403.67,1713.77 1400.07,1712.53 1393.41,1713.96Z"/>
            </g>
        </g>
        <g transform="matrix(1,0,0,1,-4,-87.7262)">
            <g transform="matrix(0.832019,0,0,0.832019,320.968,341.805)">
                <path d="M1720.64,1803.58C1720.64,1803.58 1763.08,1852.86 1773.22,1860.46C1783.35,1868.07 1784.54,1869.3 1787.45,1868.88C1790.35,1868.47 1791.18,1864.94 1789.73,1857.88C1788.28,1850.82 1761.5,1787.21 1755.9,1779.69C1750.29,1772.16 1724.77,1735.85 1698.2,1713.33C1671.63,1690.8 1675.37,1686.44 1652.12,1676.69C1628.88,1666.93 1666.03,1721.11 1672.67,1732.73C1679.31,1744.35 1699.63,1777.63 1720.64,1803.58Z"/>
            </g>
        </g>
        <g transform="matrix(1,0,0,1,-4,-87.7262)">
            <g transform="matrix(0.5054,0.26065,-0.35819,0.694532,1348.37,193.639)">
                <path d="M1720.64,1803.58C1720.64,1803.58 1763.08,1852.86 1773.22,1860.46C1783.35,1868.07 1784.54,1869.3 1787.45,1868.88C1790.35,1868.47 1791.18,1864.94 1789.73,1857.88C1788.28,1850.82 1761.5,1787.21 1755.9,1779.69C1750.29,1772.16 1724.77,1735.85 1698.2,1713.33C1671.63,1690.8 1675.37,1686.44 1652.12,1676.69C1628.88,1666.93 1666.03,1721.11 1672.67,1732.73C1679.31,1744.35 1699.63,1777.63 1720.64,1803.58Z"/>
            </g>
        </g>
        <g transform="matrix(1,0,0,1,-4,-87.7262)">
            <g transform="matrix(0.345997,0.0226169,-0.0321483,0.49181,1149.4,916.611)">
                <path d="M1720.64,1803.58C1720.64,1803.58 1763.08,1852.86 1773.22,1860.46C1783.35,1868.07 1784.54,1869.3 1787.45,1868.88C1790.35,1868.47 1791.18,1864.94 1789.73,1857.88C1788.28,1850.82 1761.5,1787.21 1755.9,1779.69C1750.29,1772.16 1724.77,1735.85 1698.2,1713.33C1671.63,1690.8 1675.37,1686.44 1652.12,1676.69C1628.88,1666.93 1666.03,1721.11 1672.67,1732.73C1679.31,1744.35 1699.63,1777.63 1720.64,1803.58Z"/>
            </g>
        </g>
        <g transform="matrix(1,0,0,1,-4,-87.7262)">
            <g transform="matrix(-0.262705,-0.226299,0.321668,-0.373417,1398.55,2889.07)">
                <path d="M1720.64,1803.58C1720.64,1803.58 1763.08,1852.86 1773.22,1860.46C1783.35,1868.07 1784.54,1869.3 1787.45,1868.88C1790.35,1868.47 1791.18,1864.94 1789.73,1857.88C1788.28,1850.82 1761.5,1787.21 1755.9,1779.69C1750.29,1772.16 1724.77,1735.85 1698.2,1713.33C1671.63,1690.8 1675.37,1686.44 1652.12,1676.69C1628.88,1666.93 1666.03,1721.11 1672.67,1732.73C1679.31,1744.35 1699.63,1777.63 1720.64,1803.58Z"/>
            </g>
        </g>
        <g transform="matrix(1,0,0,1,-4,-87.7262)">
            <g transform="matrix(-0.342144,-0.764806,0.76311,-0.341385,634.376,3697.62)">
                <path d="M1727.6,1802.74C1727.6,1802.74 1763.08,1852.86 1773.22,1860.46C1783.35,1868.07 1784.54,1869.3 1787.45,1868.88C1790.35,1868.47 1791.18,1864.94 1789.73,1857.88C1788.28,1850.82 1759.05,1792.7 1753.44,1785.17C1747.84,1777.65 1720.98,1735.47 1694.42,1712.95C1667.85,1690.43 1673.9,1689.74 1650.65,1679.98C1627.4,1670.23 1667.01,1718.91 1673.65,1730.53C1680.29,1742.16 1707.23,1772.3 1727.6,1802.74Z"/>
            </g>
        </g>
        <g transform="matrix(1,0,0,1,-4,-87.7262)">
            <g transform="matrix(-0.239782,-0.455787,0.523375,-0.27534,817.871,3068.67)">
                <path d="M1727.6,1802.74C1727.6,1802.74 1763.08,1852.86 1773.22,1860.46C1783.35,1868.07 1784.54,1869.3 1787.45,1868.88C1790.35,1868.47 1791.18,1864.94 1789.73,1857.88C1788.28,1850.82 1759.05,1792.7 1753.44,1785.17C1747.84,1777.65 1720.98,1735.47 1694.42,1712.95C1667.85,1690.43 1673.9,1689.74 1650.65,1679.98C1627.4,1670.23 1667.01,1718.91 1673.65,1730.53C1680.29,1742.16 1707.23,1772.3 1727.6,1802.74Z"/>
            </g>
        </g>
        <g transform="matrix(1,0,0,1,-4,-87.7262)">
            <g transform="matrix(-0.684657,-0.214656,-0.228806,0.729788,2835.96,766.646)">
                <path d="M1723.18,1798.85C1723.18,1798.85 1763.08,1852.86 1773.22,1860.46C1783.35,1868.07 1784.54,1869.3 1787.45,1868.88C1790.35,1868.47 1791.18,1864.94 1789.73,1857.88C1788.28,1850.82 1761.5,1787.21 1755.9,1779.69C1750.29,1772.16 1724.77,1735.85 1698.2,1713.33C1671.63,1690.8 1675.37,1686.44 1652.12,1676.69C1628.88,1666.93 1658.63,1705.08 1675.2,1728C1683.02,1738.82 1702.16,1772.9 1723.18,1798.85Z"/>
            </g>
        </g>
        <g transform="matrix(1,0,0,1,149.795,93.1125)">
            <g transform="matrix(80.3758,-164.775,154.477,75.3523,1048.51,1171.13)">
                <path d="M0.016,-0L0.146,-0L0.146,-0.595L0.148,-0.595L0.271,-0L0.484,-0L0.484,-0.712L0.354,-0.712L0.354,-0.194L0.352,-0.194L0.246,-0.712L0.016,-0.712L0.016,-0Z" style="fill:white;fill-rule:nonzero;"/>
            </g>
            <g transform="matrix(112.108,-145.062,135.996,105.101,1087.9,1088.18)">
                <path d="M0.364,-0L0.364,-0.108L0.186,-0.108L0.186,-0.34L0.358,-0.34L0.358,-0.448L0.186,-0.448L0.186,-0.604L0.364,-0.604L0.364,-0.712L0.02,-0.712L0.02,-0L0.364,-0Z" style="fill:white;fill-rule:nonzero;"/>
            </g>
            <g transform="matrix(143.967,-113.511,106.416,134.969,1117.84,1036.31)">
                <path d="M0.097,-0L0.288,-0L0.347,-0.549L0.349,-0.549L0.413,-0L0.607,-0L0.7,-0.712L0.553,-0.712L0.501,-0.205L0.499,-0.205L0.454,-0.712L0.274,-0.712L0.21,-0.205L0.208,-0.205L0.173,-0.712L0.003,-0.712L0.097,-0Z" style="fill:white;fill-rule:nonzero;"/>
            </g>
            <g transform="matrix(175.71,-52.3184,49.0485,164.728,1257.51,935.456)">
                <path d="M0.149,-0L0.315,-0L0.315,-0.262L0.456,-0.712L0.294,-0.712L0.233,-0.429L0.231,-0.429L0.17,-0.712L0.008,-0.712L0.149,-0.262L0.149,-0Z" style="fill:white;fill-rule:nonzero;"/>
            </g>
            <g transform="matrix(182.928,-12.1918,11.4298,171.495,1338.85,908.835)">
                <path d="M0.188,-0.556C0.188,-0.585 0.197,-0.612 0.232,-0.612C0.267,-0.612 0.276,-0.585 0.276,-0.556L0.276,-0.156C0.276,-0.127 0.267,-0.1 0.232,-0.1C0.197,-0.1 0.188,-0.127 0.188,-0.156L0.188,-0.556ZM0.442,-0.518C0.442,-0.681 0.342,-0.726 0.232,-0.726C0.122,-0.726 0.022,-0.681 0.022,-0.518L0.022,-0.194C0.022,-0.031 0.122,0.014 0.232,0.014C0.342,0.014 0.442,-0.031 0.442,-0.194L0.442,-0.518Z" style="fill:white;fill-rule:nonzero;"/>
            </g>
            <g transform="matrix(181.001,29.1485,-27.3267,169.689,1424.1,900.503)">
                <path d="M0.186,-0L0.186,-0.325L0.213,-0.325C0.243,-0.325 0.273,-0.3 0.273,-0.25L0.273,-0.099C0.273,-0.071 0.277,-0.029 0.297,-0L0.464,-0C0.444,-0.029 0.439,-0.071 0.439,-0.099L0.439,-0.248C0.439,-0.35 0.392,-0.38 0.312,-0.382L0.312,-0.384C0.402,-0.399 0.439,-0.457 0.439,-0.546C0.439,-0.696 0.345,-0.712 0.187,-0.712L0.02,-0.712L0.02,-0L0.186,-0ZM0.186,-0.61C0.262,-0.61 0.273,-0.585 0.273,-0.519C0.273,-0.452 0.261,-0.427 0.186,-0.427L0.186,-0.61Z" style="fill:white;fill-rule:nonzero;"/>
            </g>
            <g transform="matrix(170.119,68.3432,-64.0717,159.486,1509.44,911.528)">
                <path d="M0.188,-0L0.188,-0.361L0.19,-0.361L0.29,-0L0.454,-0L0.342,-0.398L0.453,-0.712L0.295,-0.712L0.19,-0.389L0.188,-0.389L0.188,-0.712L0.022,-0.712L0.022,-0L0.188,-0Z" style="fill:white;fill-rule:nonzero;"/>
            </g>
            <g transform="matrix(138.922,119.632,-112.155,130.24,1626.81,962.334)">
                <path d="M0.277,-0.277L0.276,-0.156C0.276,-0.127 0.267,-0.1 0.231,-0.1C0.197,-0.1 0.188,-0.127 0.188,-0.156L0.188,-0.556C0.188,-0.585 0.197,-0.612 0.231,-0.612C0.267,-0.612 0.276,-0.585 0.276,-0.556L0.276,-0.458L0.442,-0.458L0.442,-0.536C0.442,-0.69 0.352,-0.726 0.231,-0.726C0.121,-0.726 0.022,-0.681 0.022,-0.518L0.022,-0.194C0.022,-0.031 0.121,0.014 0.231,0.014C0.371,0.014 0.442,-0.05 0.442,-0.183L0.442,-0.277L0.277,-0.277Z" style="fill:white;fill-rule:nonzero;"/>
            </g>
            <g transform="matrix(120.252,138.386,-129.737,112.736,1691.18,1018.62)">
                <rect x="0.019" y="-0.712" width="0.166" height="0.712" style="fill:white;fill-rule:nonzero;"/>
            </g>
            <g transform="matrix(96.1732,156.083,-146.328,90.1624,1717.99,1045.17)">
                <path d="M0.13,-0.604L0.13,-0L0.296,-0L0.296,-0.604L0.412,-0.604L0.412,-0.712L0.014,-0.712L0.014,-0.604L0.13,-0.604Z" style="fill:white;fill-rule:nonzero;"/>
            </g>
            <g transform="matrix(65.8532,171.098,-160.404,61.7374,1755.73,1100.15)">
                <path d="M0.149,-0L0.315,-0L0.315,-0.262L0.456,-0.712L0.294,-0.712L0.233,-0.429L0.231,-0.429L0.17,-0.712L0.008,-0.712L0.149,-0.262L0.149,-0Z" style="fill:white;fill-rule:nonzero;"/>
            </g>
        </g>
    </g>
</svg>
